<?xml version="1.0" standalone="no"?>
<!DOCTYPE svg PUBLIC "-//W3C//DTD SVG 20010904//EN"
 "http://www.w3.org/TR/2001/REC-SVG-20010904/DTD/svg10.dtd">
<svg version="1.0" xmlns="http://www.w3.org/2000/svg"
 width="2048.000000pt" height="2048.000000pt" viewBox="0 0 2048.000000 2048.000000"
 preserveAspectRatio="xMidYMid meet">

<g transform="translate(0.000000,2048.000000) scale(0.100000,-0.100000)"
fill="#000000" stroke="none">
<path d="M0 10240 l0 -10240 10240 0 10240 0 0 10240 0 10240 -10240 0 -10240
0 0 -10240z m11762 5225 c14 -13 32 -41 40 -62 19 -56 17 -302 -4 -438 -10
-60 -27 -177 -39 -260 -11 -82 -30 -190 -40 -240 -38 -171 -42 -196 -36 -202
4 -3 125 17 269 45 333 66 354 70 408 77 25 3 81 12 125 20 98 18 352 59 460
75 44 6 121 18 170 26 50 7 119 18 155 24 36 5 124 19 195 30 72 11 159 25
195 30 227 33 291 42 430 60 85 11 171 23 190 25 63 9 503 38 805 55 94 5 236
14 317 19 165 12 767 16 898 7 136 -11 466 -53 582 -76 97 -19 280 -69 433
-118 151 -49 368 -183 480 -296 154 -157 244 -376 231 -567 -13 -198 -77 -379
-228 -639 -114 -199 -311 -414 -633 -695 -191 -166 -735 -538 -1095 -748 -80
-46 -183 -107 -230 -135 -160 -94 -729 -372 -1090 -532 -52 -23 -142 -64 -200
-90 -58 -27 -132 -59 -165 -73 -33 -14 -145 -64 -250 -112 -104 -47 -221 -99
-260 -115 -96 -39 -371 -159 -480 -210 -49 -23 -130 -57 -178 -76 -49 -19
-152 -63 -229 -100 -158 -73 -341 -150 -558 -231 -80 -31 -192 -73 -250 -95
-58 -22 -202 -75 -320 -118 -312 -114 -513 -189 -530 -199 -9 -5 -56 -21 -105
-35 -50 -15 -144 -44 -210 -65 -66 -21 -174 -55 -240 -75 -66 -20 -165 -51
-220 -69 -112 -36 -100 -22 -130 -162 -10 -44 -26 -114 -36 -155 -10 -41 -34
-140 -52 -220 -19 -80 -52 -216 -72 -303 -21 -87 -35 -160 -31 -164 17 -17
602 167 976 307 204 76 245 80 343 32 106 -53 167 -145 167 -253 0 -97 -93
-215 -213 -269 -76 -34 -257 -92 -482 -155 -93 -26 -249 -74 -345 -105 -156
-52 -525 -150 -562 -150 -27 0 -49 -26 -59 -70 -6 -25 -24 -106 -40 -180 -118
-544 -189 -682 -367 -710 -52 -9 -66 -7 -109 11 -103 44 -143 115 -143 254 0
97 26 267 62 407 12 48 19 90 15 94 -4 4 -31 2 -59 -4 -185 -38 -517 -107
-593 -122 -181 -36 -675 -98 -920 -115 -49 -3 -153 -12 -230 -20 -275 -28
-581 -36 -945 -25 -350 10 -391 14 -605 50 -363 62 -522 116 -797 271 -141 79
-245 161 -342 267 -102 112 -161 196 -191 270 -35 87 -75 300 -75 403 0 93 33
267 70 372 34 97 164 355 237 471 139 221 371 484 661 749 295 269 711 577
1062 787 85 51 168 102 184 114 17 12 67 41 113 66 46 25 141 79 211 121 336
202 1086 580 1456 734 83 35 210 89 281 120 146 63 178 76 610 243 288 112
484 183 580 212 22 7 67 22 100 35 33 13 137 44 230 70 94 26 193 53 221 61
l51 14 21 72 c42 148 91 338 132 513 23 99 55 228 71 287 39 144 45 188 28
188 -7 0 -76 -13 -154 -30 -77 -16 -279 -59 -450 -95 -170 -35 -348 -73 -395
-84 -47 -12 -152 -36 -235 -56 -82 -19 -168 -40 -190 -45 -22 -5 -67 -14 -100
-21 -54 -10 -400 -97 -735 -184 -69 -18 -208 -53 -310 -79 -205 -52 -328 -84
-720 -186 -309 -81 -493 -126 -680 -168 -25 -6 -99 -24 -165 -41 -162 -43
-337 -80 -410 -87 -47 -4 -68 -1 -95 13 -123 64 29 158 555 345 471 167 650
227 920 308 77 23 203 62 280 86 77 23 212 63 300 88 88 25 194 57 235 71 82
28 656 180 815 215 125 28 331 80 500 125 134 36 173 46 485 120 346 82 500
116 649 144 l34 6 38 150 c36 146 64 242 129 450 17 55 39 129 49 165 17 62
98 259 163 398 36 75 130 182 162 182 12 0 33 -11 48 -25z"/>
<path d="M14995 14290 c-71 -5 -175 -13 -230 -18 -131 -13 -564 -50 -735 -63
-218 -17 -526 -57 -735 -95 -298 -54 -357 -64 -560 -94 -115 -18 -313 -51
-440 -75 -126 -24 -318 -60 -425 -80 -107 -20 -218 -41 -246 -46 -41 -8 -53
-15 -57 -32 -3 -12 -28 -123 -57 -247 -29 -124 -61 -262 -71 -307 -10 -45 -30
-122 -45 -170 -36 -123 -63 -257 -54 -266 6 -7 127 16 645 122 122 25 221 42
375 66 91 14 206 32 255 40 106 17 226 29 505 50 113 9 284 22 380 30 218 18
461 13 725 -15 311 -33 412 -65 389 -123 -11 -29 -117 -54 -339 -81 -71 -9
-166 -20 -210 -26 -44 -6 -161 -19 -260 -31 -99 -11 -187 -22 -195 -24 -8 -2
-78 -14 -155 -25 -77 -12 -156 -25 -175 -30 -36 -10 -426 -80 -585 -106 -148
-24 -421 -82 -565 -120 -74 -19 -184 -48 -245 -64 -139 -36 -390 -114 -564
-176 -154 -55 -145 -44 -181 -214 -35 -164 -128 -556 -154 -650 -13 -47 -34
-119 -45 -160 -37 -126 -119 -457 -152 -605 -16 -77 -38 -174 -49 -215 -10
-41 -21 -88 -24 -105 -3 -16 -10 -45 -16 -64 -12 -43 -8 -47 33 -34 109 37
341 119 457 162 380 141 841 315 990 373 41 16 100 38 130 48 67 22 114 41
400 162 264 111 270 113 550 228 118 49 253 105 300 125 47 20 139 59 205 86
66 28 140 59 165 71 47 21 258 109 445 185 61 24 155 64 210 88 55 24 138 59
185 78 47 19 124 53 172 76 47 23 117 54 155 70 279 117 683 310 860 412 292
167 638 381 769 475 194 138 283 212 443 368 210 207 301 358 301 504 0 150
-125 304 -300 371 -156 60 -474 113 -930 156 -185 18 -1050 28 -1245 15z"/>
<path d="M10395 11985 c-132 -46 -265 -93 -295 -104 -30 -11 -154 -56 -275
-100 -121 -43 -251 -92 -290 -109 -38 -16 -141 -57 -227 -91 -151 -59 -442
-185 -463 -200 -5 -4 -41 -20 -80 -35 -38 -16 -101 -43 -140 -62 -38 -18 -171
-81 -295 -139 -286 -135 -584 -296 -960 -518 -118 -70 -703 -463 -827 -555
-190 -143 -251 -191 -258 -201 -3 -6 -63 -57 -133 -113 -255 -205 -601 -571
-735 -778 -131 -204 -191 -373 -191 -550 -1 -142 23 -196 138 -307 164 -159
327 -229 751 -323 22 -5 99 -18 170 -29 225 -36 921 -54 1198 -31 277 22 378
33 492 50 66 11 219 33 340 50 121 17 236 35 255 40 19 5 112 23 205 40 94 18
258 51 365 75 107 23 249 53 315 65 185 34 175 26 217 171 53 185 80 288 147
567 60 248 67 282 55 282 -26 0 -239 -62 -464 -135 -74 -24 -160 -51 -190 -59
-90 -24 -291 -84 -535 -161 -308 -98 -607 -165 -728 -165 -100 0 -225 69 -289
160 -30 42 -58 116 -58 152 0 92 80 230 182 315 90 75 97 78 558 219 80 25
215 67 300 94 85 27 216 67 290 90 74 22 158 50 185 60 28 11 116 42 197 69
81 28 198 70 260 95 62 24 172 62 243 85 72 23 168 56 215 75 73 30 87 39 99
68 18 45 78 255 102 358 23 105 61 251 99 390 38 135 151 590 185 745 15 66
49 209 76 318 52 211 53 217 42 216 -5 0 -116 -38 -248 -84z"/>
</g>
</svg>
